{"title":"Aussie Gold Hunters - S01E04","uid":15970155,"size":1079049574,"categoryP":"video","categoryS":"tv_shows","magnet":"?xt=urn:btih:d03fdec37be3c1d281640f735f0b5d0ead7da34c&amp;dn=Aussie+Gold+Hunters+-+S01E04&amp;tr=udp%3A%2F%2Ftracker.leechers-paradise.org%3A6969&amp;tr=udp%3A%2F%2Fzer0day.ch%3A1337&amp;tr=udp%3A%2F%2Fopen.demonii.com%3A1337&amp;tr=udp%3A%2F%2Ftracker.coppersurfer.tk%3A6969&amp;tr=udp%3A%2F%2Fexodus.desync.com%3A6969","seeders":5,"leechers":1,"uploader":"Bullrout","files":1,"time":1475769885,"description":"Aussie Gold Hunters - S01E04\r\n\r\nTorrential rain threatens to drown the season for the Dirt Dogs. Remote prospectors Henri and Kellie hit a hot streak. And the Gold Gypsies strike a once-in-a-lifetime find.\r\n\r\nComplete name : Aussie Gold Hunters - S01E04.mkv\r\nFormat : Matroska\r\nFormat version : Version 4 / Version 2\r\nFile size : 1.00 GiB\r\nDuration : 43 min 30 s\r\nOverall bit rate mode : Variable\r\nOverall bit rate : 3 307 kb/s\r\nEncoded date : UTC 2016-10-06 13:51:16\r\nWriting application : mkvmerge v9.4.2 ('So High') 64bit\r\nWriting library : libebml v1.3.4 + libmatroska v1.4.5\r\n\r\nVideo\r\nID : 2\r\nFormat : AVC\r\nFormat/Info : Advanced Video Codec\r\nFormat profile :   \r\nFormat settings, CABAC : Yes\r\nFormat settings, ReFrames : 3 frames\r\nCodec ID : V_MPEG4/ISO/AVC\r\nDuration : 43 min 30 s\r\nBit rate mode : Variable\r\nBit rate : 2 921 kb/s\r\nMaximum bit rate : 3 000 kb/s\r\nWidth : 1 280 pixels\r\nHeight : 720 pixels\r\nDisplay aspect ratio : 16:9\r\nFrame rate mode : Constant\r\nFrame rate : 25.000 FPS\r\nStandard : PAL\r\nColor space : YUV\r\nChroma subsampling : 4:2:0\r\nBit depth : 8 bits\r\nScan type : Progressive\r\nBits/(Pixel*Frame) : 0.127\r\nStream size : 909 MiB (88%)\r\nWriting library : x264 core 112\r\nDefault : Yes\r\nForced : No\r\nColor range : Limited\r\nColor primaries : BT.709\r\nTransfer characteristics : BT.709\r\nMatrix coefficients : BT.709\r\n\r\nAudio\r\nID : 1\r\nFormat : AC-3\r\nFormat/Info : Audio Coding 3\r\nMode extension : CM (complete main)\r\nFormat settings, Endianness : Big\r\nCodec ID : A_AC3\r\nDuration : 43 min 30 s\r\nBit rate mode : Constant\r\nBit rate : 384 kb/s\r\nChannel(s) : 6 channels\r\nChannel positions : Front: L C R, Side: L R, LFE\r\nSampling rate : 48.0 kHz\r\nFrame rate : 31.250 FPS (1536 spf)\r\nCompression mode : Lossy\r\nStream size : 119 MiB (12%)\r\nDefault : Yes\r\nForced : No","torrent":{"xt":"urn:btih:d03fdec37be3c1d281640f735f0b5d0ead7da34c","amp;dn":"Aussie+Gold+Hunters+-+S01E04","amp;tr":["udp%3A%2F%2Ftracker.leechers-paradise.org%3A6969","udp%3A%2F%2Fzer0day.ch%3A1337","udp%3A%2F%2Fopen.demonii.com%3A1337","udp%3A%2F%2Ftracker.coppersurfer.tk%3A6969","udp%3A%2F%2Fexodus.desync.com%3A6969"],"infoHash":"d03fdec37be3c1d281640f735f0b5d0ead7da34c","infoHashBuffer":{"type":"Buffer","data":[208,63,222,195,123,227,193,210,129,100,15,115,95,11,93,14,173,125,163,76]},"announce":[],"urlList":[]}}